<svg id="Smock_Stock_18_N" xmlns="http://www.w3.org/2000/svg" viewBox="0 0 18 18">
    <rect id="Canvas" fill="#ff13dc" opacity="0"/>
    <path id="Path_37753" data-name="Path 37753" d="M4.851,11.926a.169.169,0,0,1-.069-.156V10.6c0-.034.043-.069.095-.034a3.123,3.123,0,0,0,1.787.544c.881,0,1.243-.458,1.243-.976,0-.457-.224-.837-1.07-1.329L6.4,8.575A2.505,2.505,0,0,1,4.79,6.253,2.214,2.214,0,0,1,7.268,4.025a3.255,3.255,0,0,1,1.537.285c.061.017.069.06.069.129V5.527c0,.052-.043.087-.094.052a2.806,2.806,0,0,0-1.486-.362c-.932,0-1.234.526-1.234.949,0,.467.233.8,1.062,1.261l.388.207c1.382.76,1.727,1.5,1.727,2.409a2.286,2.286,0,0,1-2.573,2.271A3.761,3.761,0,0,1,4.851,11.926Z" fill="#fff"/>
    <path id="Path_37754" data-name="Path 37754" d="M13.235,12.1a.129.129,0,0,1-.086.129,2.508,2.508,0,0,1-.9.147c-.916,0-1.442-.484-1.442-1.623v-3.3h-.683c-.06,0-.077-.026-.077-.086V6.4c0-.061.017-.1.086-.1h.691a13.578,13.578,0,0,1,.1-1.4.118.118,0,0,1,.087-.121L12.1,4.647c.052-.017.086,0,.086.061-.026.345-.034.941-.043,1.6h1.062c.06,0,.086.017.086.078v.993c0,.06-.043.077-.086.077H12.13v3.066c0,.5.172.725.621.725a1.691,1.691,0,0,0,.406-.043c.035-.009.078.008.078.069Z" fill="#fff"/>
    <path id="Path_37755" data-name="Path 37755" d="M0,.5v16a.5.5,0,0,0,.5.5h17a.5.5,0,0,0,.5-.5V.5a.5.5,0,0,0-.5-.5H.5A.5.5,0,0,0,0,.5ZM17,16H1V1H17Z" fill="#fff"/>
</svg>